<svg width="16" height="13" viewBox="0 0 16 13" fill="none" xmlns="http://www.w3.org/2000/svg">
<g clip-path="url(#clip0_1_86)">
<g clip-path="url(#clip1_1_86)">
<path d="M6.8675 7.48485H4.3325C1.94025 7.48485 0 9.39545 0 11.7517C0 12.2244 0.388 12.6061 0.8665 12.6061H10.334C10.8125 12.6061 11.2 12.2244 11.2 11.7517C11.2 9.39545 9.26 7.48485 6.8675 7.48485ZM10.3325 11.8182H0.8665C0.83 11.8182 0.8 11.7886 0.8 11.7517C0.8 9.83371 2.385 8.27273 4.3325 8.27273H6.8675C8.815 8.27273 10.4 9.83371 10.4 11.7517C10.4 11.7886 10.37 11.8182 10.3325 11.8182ZM5.6 6.30303C7.3675 6.30303 8.8 4.89199 8.8 3.15152C8.8 1.41104 7.3675 0 5.6 0C3.8325 0 2.4 1.41104 2.4 3.15152C2.4 4.89199 3.8325 6.30303 5.6 6.30303ZM5.6 0.787879C6.9235 0.787879 8 1.84807 8 3.15152C8 4.45472 6.9235 5.51515 5.6 5.51515C4.2765 5.51515 3.2 4.45398 3.2 3.15152C3.2 1.84807 4.2775 0.787879 5.6 0.787879ZM15.6 5.12121H14V3.54545C14 3.32879 13.82 3.15152 13.6 3.15152C13.38 3.15152 13.2 3.3277 13.2 3.54545V5.12121H11.6C11.38 5.12121 11.2 5.29848 11.2 5.51515C11.2 5.73182 11.3789 5.90909 11.6 5.90909H13.2V7.48485C13.2 7.7026 13.3789 7.87879 13.6 7.87879C13.8211 7.87879 14 7.7026 14 7.48485V5.90909H15.6C15.82 5.90909 16 5.73182 16 5.51515C16 5.29848 15.82 5.12121 15.6 5.12121Z" fill="black"/>
</g>
</g>
<defs>
<clipPath id="clip0_1_86">
<rect width="16" height="12.6061" fill="white"/>
</clipPath>
<clipPath id="clip1_1_86">
<rect width="16" height="12.6061" fill="white"/>
</clipPath>
</defs>
</svg>
