<svg width="16" height="15" viewBox="0 0 16 15" fill="none" xmlns="http://www.w3.org/2000/svg">
<path d="M12 7.5C12 7.24412 11.9023 6.98813 11.707 6.79313L7.70703 2.79312C7.42188 2.50688 6.99062 2.42094 6.61875 2.57625C6.24375 2.73125 6 3.09687 6 3.5V5.5H1.5C0.671562 5.5 0 6.17188 0 7V8C0 8.82812 0.671562 9.5 1.5 9.5H6V11.5C6 11.9044 6.24366 12.2694 6.61719 12.4237C6.99125 12.579 7.42094 12.4931 7.70719 12.2069L11.7072 8.20694C11.9031 8.0125 12 7.75625 12 7.5ZM7 11.5V8.5H1.5C1.22438 8.5 1 8.275 1 8V7C1 6.725 1.22438 6.5 1.5 6.5H7L6.97188 3.5L10.9719 7.5L7 11.5ZM13.5 0.5H10.5C10.225 0.5 10 0.72375 10 1C10 1.27625 10.225 1.5 10.5 1.5H13.5C14.3281 1.5 15 2.17281 15 3V12C15 12.8272 14.3272 13.5 13.5 13.5H10.5C10.2236 13.5 10 13.7236 10 14C10 14.2764 10.2236 14.5 10.5 14.5H13.5C14.8791 14.5 16 13.3787 16 12V3C16 1.62125 14.8781 0.5 13.5 0.5Z" fill="black"/>
</svg>
