<svg width="42" height="32" viewBox="0 0 42 32" fill="none" xmlns="http://www.w3.org/2000/svg">
<path d="M21.5032 8.82115C17.3886 8.82115 14.0697 12.0263 14.0697 16C14.0697 19.9737 17.3886 23.1788 21.5032 23.1788C25.6179 23.1788 28.9368 19.9737 28.9368 16C28.9368 12.0263 25.6179 8.82115 21.5032 8.82115ZM21.5032 20.6672C18.8442 20.6672 16.6704 18.5741 16.6704 16C16.6704 13.4259 18.8378 11.3328 21.5032 11.3328C24.1687 11.3328 26.336 13.4259 26.336 16C26.336 18.5741 24.1622 20.6672 21.5032 20.6672ZM30.9747 8.5275C30.9747 9.45844 30.1984 10.2019 29.2409 10.2019C28.2769 10.2019 27.507 9.45219 27.507 8.5275C27.507 7.60281 28.2834 6.85306 29.2409 6.85306C30.1984 6.85306 30.9747 7.60281 30.9747 8.5275ZM35.8981 10.2269C35.7881 7.98393 35.2576 5.9971 33.5561 4.36015C31.8611 2.7232 29.8037 2.21087 27.4812 2.0984C25.0874 1.9672 17.9126 1.9672 15.5189 2.0984C13.2027 2.20462 11.1454 2.71695 9.44389 4.3539C7.74239 5.99085 7.21835 7.97769 7.1019 10.2207C6.96603 12.5324 6.96603 19.4613 7.1019 21.7731C7.21188 24.0161 7.74239 26.0029 9.44389 27.6399C11.1454 29.2768 13.1963 29.7891 15.5189 29.9016C17.9126 30.0328 25.0874 30.0328 27.4812 29.9016C29.8037 29.7954 31.8611 29.2831 33.5561 27.6399C35.2511 26.0029 35.7817 24.0161 35.8981 21.7731C36.034 19.4613 36.034 12.5387 35.8981 10.2269ZM32.8056 24.2535C32.301 25.4781 31.3241 26.4215 30.0496 26.9151C28.1411 27.6461 23.6123 27.4774 21.5032 27.4774C19.3941 27.4774 14.859 27.6399 12.9569 26.9151C11.6888 26.4278 10.7119 25.4843 10.2008 24.2535C9.44389 22.4104 9.61857 18.0368 9.61857 16C9.61857 13.9632 9.45036 9.5834 10.2008 7.74651C10.7055 6.52192 11.6824 5.57849 12.9569 5.0849C14.8654 4.3539 19.3941 4.52259 21.5032 4.52259C23.6123 4.52259 28.1475 4.36015 30.0496 5.0849C31.3176 5.57224 32.2945 6.51568 32.8056 7.74651C33.5626 9.58965 33.3879 13.9632 33.3879 16C33.3879 18.0368 33.5626 22.4166 32.8056 24.2535Z" fill="black"/>
</svg>
