<svg width="42" height="32" viewBox="0 0 42 32" fill="none" xmlns="http://www.w3.org/2000/svg">
<path d="M39.2284 7.06927C38.8028 5.46797 37.5489 4.20656 35.9575 3.77865C33.0702 3 21.499 3 21.499 3C21.499 3 9.9278 3 7.04382 3.77797C5.45176 4.20602 4.19844 5.46729 3.77299 7.06859C3 9.97125 3 16.0264 3 16.0264C3 16.0264 3 22.0822 3.77299 24.9842C4.19851 26.5855 5.45244 27.7941 7.04382 28.222C9.9278 29 21.499 29 21.499 29C21.499 29 33.0702 29 35.9562 28.222C37.5482 27.794 38.8016 26.5855 39.227 24.9842C40 22.0816 40 16.0264 40 16.0264C40 16.0264 40 9.97057 39.227 7.06859L39.2284 7.06927ZM17.7187 21.525V10.5292L27.3862 16.0278L17.7187 21.5257V21.525Z" fill="black"/>
</svg>
