<svg width="42" height="32" viewBox="0 0 42 32" fill="none" xmlns="http://www.w3.org/2000/svg">
<path d="M35.4007 8.68097C35.4229 8.97693 35.4229 9.27294 35.4229 9.56922C35.4229 18.5948 28.2046 29 15.012 29C10.9483 29 7.17168 27.8794 4 25.9344C4.5774 25.9978 5.13265 26.0189 5.73212 26.0189C9.08563 26.0189 12.1719 24.9407 14.6388 23.1017C11.4856 23.0383 8.84297 21.0721 7.93248 18.3664C8.37665 18.4297 8.82041 18.472 9.28728 18.472C9.93125 18.472 10.5751 18.3874 11.1746 18.2395C7.88805 17.6053 5.42316 14.857 5.42316 11.5956V11.5111C6.37808 12.0184 7.48817 12.3355 8.66524 12.3778C6.73353 11.1519 5.46759 9.05846 5.46759 6.69111C5.46759 5.42284 5.82283 4.25998 6.44438 3.2455C9.97493 7.38869 15.2827 10.0977 21.2365 10.3905C21.1254 9.88313 21.0588 9.35454 21.0588 8.82615C21.0588 5.06298 24.2565 2 28.2293 2C30.2943 2 32.1597 2.82447 33.4701 4.15652C35.0914 3.86057 36.6458 3.28975 38.0225 2.50757C37.4895 4.0934 36.3567 5.42479 34.8693 6.27074C36.313 6.12283 37.7115 5.74221 39 5.21395C38.0232 6.56682 36.8017 7.77197 35.4025 8.74416L35.4007 8.68097Z" fill="black"/>
</svg>
