<svg width="42" height="32" viewBox="0 0 42 32" fill="none" xmlns="http://www.w3.org/2000/svg">
<path d="M33 2H8.99375C7.89375 2 7 2.90625 7 4.01875V27.9813C7 29.0938 7.89375 30 8.99375 30H33C34.1 30 35 29.0938 35 27.9813V4.01875C35 2.90625 34.1 2 33 2ZM15.4625 26H11.3125V12.6375H15.4688V26H15.4625ZM13.3875 10.8125C12.0562 10.8125 10.9813 9.73125 10.9813 8.40625C10.9813 7.08125 12.0562 6 13.3875 6C14.7125 6 15.7937 7.08125 15.7937 8.40625C15.7937 9.7375 14.7187 10.8125 13.3875 10.8125ZM31.0187 26H26.8687V19.5C26.8687 17.95 26.8375 15.9563 24.7125 15.9563C22.55 15.9563 22.2188 17.6438 22.2188 19.3875V26H18.0688V12.6375H22.05V14.4625H22.1062C22.6625 13.4125 24.0188 12.3062 26.0375 12.3062C30.2375 12.3062 31.0187 15.075 31.0187 18.675V26Z" fill="black"/>
</svg>
