<svg width="110" height="33" viewBox="0 0 110 33" fill="none" xmlns="http://www.w3.org/2000/svg">
<path d="M104.674 10.626H101.953V8.25903H110V10.626H107.278V24.8276H104.675L104.674 10.626Z" fill="black"/>
<path d="M96.3428 8.25903H98.9463V22.4607H103.231V24.8276H96.3428V8.25903Z" fill="black"/>
<path d="M87.6999 23.9759C87.0215 23.2499 86.6823 22.2241 86.6823 20.8986V12.188C86.6823 10.8625 87.0215 9.83672 87.6999 9.11072C88.3783 8.38472 89.3567 8.02197 90.6352 8.02246C91.9131 8.02246 92.8915 8.38521 93.5704 9.11072C94.2493 9.83623 94.5885 10.862 94.588 12.188V20.8986C94.588 22.2241 94.2488 23.2499 93.5704 23.9759C92.892 24.7019 91.9136 25.0647 90.6352 25.0642C89.3592 25.0642 88.3808 24.7014 87.6999 23.9759ZM91.9845 21.0645V12.0222C91.9845 10.9312 91.5347 10.3869 90.6352 10.3894C89.7356 10.3919 89.2858 10.9361 89.2858 12.0222V21.0645C89.2858 22.1554 89.7356 22.7009 90.6352 22.7009C91.5347 22.7009 91.9855 22.1554 91.9875 21.0645H91.9845Z" fill="black"/>
<path d="M77.312 8.25903H81.241C82.58 8.25903 83.5584 8.57071 84.1763 9.19406C84.7942 9.81741 85.1009 10.776 85.0964 12.0698V12.7326C85.0964 13.584 84.9583 14.2783 84.6821 14.8154C84.4159 15.343 83.9662 15.7554 83.4175 15.975V16.0226C84.7109 16.4645 85.3578 17.6165 85.3583 19.4786V20.8986C85.3583 22.1766 85.023 23.151 84.3526 23.822C83.6821 24.4929 82.7 24.8281 81.4062 24.8276H77.3105L77.312 8.25903ZM80.9308 15.005C81.4515 15.005 81.8421 14.8709 82.1024 14.6026C82.3627 14.3343 82.4929 13.8846 82.4929 13.2533V12.3301C82.4929 11.7306 82.3863 11.2967 82.1731 11.0284C81.9598 10.7601 81.6246 10.626 81.1674 10.626H79.9125V15.005H80.9308ZM81.4047 22.4607C81.8619 22.4607 82.2008 22.3385 82.4215 22.094C82.6422 21.8495 82.7528 21.428 82.7533 20.8294V19.3819C82.7533 18.6246 82.6231 18.1 82.3627 17.8079C82.1024 17.5158 81.6747 17.371 81.0796 17.3735H79.9192V22.4622L81.4047 22.4607Z" fill="black"/>
<path d="M68.6729 23.9759C67.994 23.2499 67.6548 22.2241 67.6553 20.8986V12.188C67.6553 10.8625 67.9945 9.83672 68.6729 9.11072C69.3513 8.38472 70.3297 8.02197 71.6081 8.02246C72.8861 8.02246 73.8645 8.38521 74.5434 9.11072C75.2223 9.83623 75.5612 10.862 75.5602 12.188V20.8986C75.5602 22.2241 75.2213 23.2499 74.5434 23.9759C73.8655 24.7019 72.887 25.0647 71.6081 25.0642C70.3297 25.0642 69.3513 24.7014 68.6729 23.9759ZM72.9575 21.0645V12.0222C72.9575 10.9312 72.5077 10.3869 71.6081 10.3894C70.7085 10.3919 70.2588 10.9361 70.2588 12.0222V21.0645C70.2588 22.1554 70.7085 22.7009 71.6081 22.7009C72.5077 22.7009 72.9575 22.1554 72.9575 21.0645Z" fill="black"/>
<path d="M59.2527 8.25903H66.3513V10.626H61.8562V15.005H65.4267V17.3735H61.8562V22.4622H66.3513V24.8291H59.2527V8.25903Z" fill="black"/>
<path d="M49.6429 8.25903H53.6195C54.9128 8.25903 55.8831 8.60617 56.5302 9.30043C57.1774 9.99469 57.4997 11.0125 57.4972 12.354V20.7327C57.4972 22.0717 57.1749 23.0883 56.5302 23.7825C55.8856 24.4768 54.9153 24.8239 53.6195 24.8239H49.6429V8.25903ZM53.5719 22.4607C53.9979 22.4607 54.3252 22.3345 54.5538 22.0821C54.7824 21.8297 54.8965 21.4193 54.896 20.851V12.2357C54.896 11.6674 54.7814 11.257 54.5523 11.0046C54.3232 10.7522 53.9959 10.626 53.5704 10.626H52.2464V22.4607H53.5719Z" fill="black"/>
<path d="M45.0986 8.25903H47.7021V24.8276H45.0986V8.25903Z" fill="black"/>
<path d="M35.3705 8.25903H37.9978L39.7019 21.1114H39.7496L41.4537 8.25903H43.8445L41.3355 24.8276H37.8795L35.3705 8.25903Z" fill="black"/>
<path d="M30.897 13.1952C30.5779 12.8664 30.2499 12.5465 29.9382 12.2282C29.8575 12.1467 29.7741 12.0678 29.6883 11.9916C26.994 9.59267 24.0744 7.37971 20.9041 5.56842C20.8669 5.54671 20.8258 5.53263 20.7831 5.52698C20.7405 5.52133 20.6971 5.52423 20.6555 5.53551C20.614 5.5468 20.5751 5.56624 20.5412 5.59271C20.5072 5.61918 20.4789 5.65214 20.4578 5.68967C20.4448 5.71319 20.4345 5.73816 20.4273 5.76406L18.3445 13.1238C18.3306 13.172 18.3282 13.2229 18.3374 13.2723C18.3466 13.3217 18.3672 13.3682 18.3975 13.4083C18.4278 13.4483 18.467 13.4808 18.5121 13.5031C18.5571 13.5253 18.6067 13.5368 18.6569 13.5366H24.331C25.6134 13.5366 26.2517 14.9023 25.4416 15.9132L14.2399 29.8977C14.1951 29.9532 14.1699 30.0219 14.1681 30.0931C14.1663 30.1644 14.1881 30.2343 14.23 30.292C14.2719 30.3496 14.3317 30.3919 14.4 30.4122C14.4684 30.4325 14.5415 30.4297 14.6081 30.4042L15.5751 30.0397C20.6229 28.1466 25.1165 25.1467 29.1564 21.7458C29.2397 21.6754 29.3208 21.6025 29.3997 21.5271C29.8675 21.0808 30.3704 20.6345 30.8472 20.1614C31.7772 19.2506 32.3075 18.0079 32.3214 16.7063C32.3354 15.4047 31.8319 14.1509 30.9216 13.2205L30.897 13.1959" fill="black"/>
<path d="M11.2474 21.5688C11.2611 21.5198 11.2634 21.4682 11.2539 21.4181C11.2444 21.3681 11.2235 21.3209 11.1927 21.2802C11.1619 21.2396 11.1222 21.2066 11.0766 21.1839C11.031 21.1612 10.9807 21.1494 10.9297 21.1493H5.26454C3.98288 21.1493 3.34465 19.7836 4.15397 18.7734L16.2044 3.72898C16.258 3.6622 16.2828 3.57688 16.2734 3.49179C16.2641 3.4067 16.2213 3.3288 16.1546 3.27523C16.1301 3.255 16.1024 3.23892 16.0727 3.22762C12.7284 1.90133 9.2821 0.413622 5.60151 0.342956C3.77088 0.250718 2.78379 1.94894 2.25342 3.35854C0.736699 7.50107 0.201124 11.9151 0.00474617 16.2786C-0.00120467 16.4028 -0.00194852 16.527 0.00474617 16.6505C0.123019 20.9232 0.594623 25.2651 1.96257 29.3496C2.48327 30.8373 3.41086 32.72 5.35901 32.659C6.23898 32.6514 7.11679 32.5705 7.98333 32.4172C8.04389 32.4069 8.10028 32.3796 8.14596 32.3385C8.19164 32.2974 8.22475 32.2443 8.24145 32.1851L11.2474 21.5688Z" fill="black"/>
</svg>
