<svg width="33" height="33" viewBox="0 0 33 33" fill="none" xmlns="http://www.w3.org/2000/svg">
<path d="M30.897 13.1954C30.5779 12.8666 30.2498 12.5468 29.9382 12.2284C29.8574 12.1469 29.774 12.068 29.6882 11.9918C26.994 9.59292 24.0743 7.37995 20.904 5.56867C20.8669 5.54696 20.8257 5.53287 20.7831 5.52722C20.7404 5.52157 20.697 5.52447 20.6555 5.53576C20.6139 5.54704 20.575 5.56649 20.5411 5.59295C20.5071 5.61942 20.4788 5.65238 20.4577 5.68991C20.4447 5.71343 20.4345 5.7384 20.4272 5.7643L18.3444 13.124C18.3306 13.1723 18.3282 13.2231 18.3374 13.2725C18.3465 13.3219 18.3671 13.3685 18.3974 13.4085C18.4277 13.4486 18.467 13.481 18.512 13.5033C18.557 13.5256 18.6066 13.5371 18.6569 13.5368H24.331C25.6134 13.5368 26.2516 14.9026 25.4416 15.9135L14.2398 29.8979C14.1951 29.9534 14.1699 30.0221 14.1681 30.0934C14.1663 30.1647 14.188 30.2345 14.2299 30.2922C14.2719 30.3499 14.3316 30.3921 14.4 30.4124C14.4683 30.4327 14.5415 30.4299 14.6081 30.4045L15.5751 30.04C20.6229 28.1469 25.1165 25.1469 29.1564 21.746C29.2397 21.6756 29.3208 21.6027 29.3996 21.5273C29.8675 21.081 30.3703 20.6347 30.8471 20.1616C31.7771 19.2509 32.3074 18.0081 32.3213 16.7066C32.3353 15.405 31.8318 14.1511 30.9215 13.2207L30.897 13.1962" fill="black"/>
<path d="M11.2474 21.569C11.2611 21.5199 11.2634 21.4683 11.2539 21.4182C11.2444 21.3682 11.2235 21.321 11.1927 21.2803C11.1619 21.2397 11.1222 21.2068 11.0766 21.184C11.031 21.1613 10.9807 21.1495 10.9297 21.1494H5.26454C3.98288 21.1494 3.34465 19.7837 4.15397 18.7736L16.2044 3.7291C16.258 3.66232 16.2828 3.577 16.2734 3.49191C16.2641 3.40682 16.2213 3.32892 16.1546 3.27535C16.1301 3.25512 16.1024 3.23904 16.0727 3.22775C12.7284 1.90145 9.2821 0.413744 5.60151 0.343078C3.77088 0.25084 2.78379 1.94906 2.25342 3.35866C0.736699 7.50119 0.201124 11.9152 0.00474617 16.2787C-0.00120467 16.4029 -0.00194852 16.5271 0.00474617 16.6506C0.123019 20.9233 0.594623 25.2652 1.96257 29.3497C2.48327 30.8374 3.41086 32.7201 5.35901 32.6591C6.23898 32.6515 7.11679 32.5707 7.98333 32.4173C8.04389 32.407 8.10028 32.3797 8.14596 32.3386C8.19164 32.2976 8.22475 32.2444 8.24145 32.1853L11.2474 21.569Z" fill="black"/>
</svg>
